<?xml version="1.0" encoding="UTF-8" standalone="no"?>
<!-- Created with Inkscape (http://www.inkscape.org/) -->

<svg
   width="32"
   height="32"
   viewBox="0 0 8.4666666 8.4666666"
   version="1.1"
   id="svg5"
   inkscape:version="1.2.1 (9c6d41e410, 2022-07-14)"
   sodipodi:docname="image.svg"
   xmlns:inkscape="http://www.inkscape.org/namespaces/inkscape"
   xmlns:sodipodi="http://sodipodi.sourceforge.net/DTD/sodipodi-0.dtd"
   xmlns="http://www.w3.org/2000/svg"
   xmlns:svg="http://www.w3.org/2000/svg">
  <sodipodi:namedview
     id="namedview7"
     pagecolor="#ffffff"
     bordercolor="#666666"
     borderopacity="1.0"
     inkscape:showpageshadow="2"
     inkscape:pageopacity="0.0"
     inkscape:pagecheckerboard="0"
     inkscape:deskcolor="#d1d1d1"
     inkscape:document-units="mm"
     showgrid="false"
     inkscape:lockguides="false"
     showguides="true"
     inkscape:zoom="4.3137482"
     inkscape:cx="116.37212"
     inkscape:cy="0"
     inkscape:window-width="1920"
     inkscape:window-height="1080"
     inkscape:window-x="0"
     inkscape:window-y="0"
     inkscape:window-maximized="1"
     inkscape:current-layer="layer1" />
  <defs
     id="defs2" />
  <g
     inkscape:label="Layer 1"
     inkscape:groupmode="layer"
     id="layer1">
    <rect
       style="fill:none;fill-rule:evenodd;stroke:#000000;stroke-width:0.336998;stroke-linecap:round;stroke-dasharray:none"
       id="rect234"
       width="7.7855649"
       height="5.643836"
       x="0.34055087"
       y="1.4114153"
       rx="0"
       ry="0.80431044" />
    <path
       id="rect950"
       style="fill:#000000;fill-rule:evenodd;stroke:#000000;stroke-width:0;stroke-linecap:round;stroke-dasharray:none"
       d="M 5.5229187,3.1773415 3.6573995,5.0428607 2.667279,4.0527403 1.1862325,5.5337869 V 6.1859434 H 7.2804341 V 4.934857 Z" />
    <rect
       style="fill:none;fill-rule:evenodd;stroke:#000000;stroke-width:0.336998;stroke-linecap:round;stroke-dasharray:none"
       id="rect955"
       width="7.7855649"
       height="5.643836"
       x="0.34055087"
       y="1.4114153"
       rx="0"
       ry="0.80431044" />
    <path
       id="rect1114"
       style="fill:none;fill-rule:evenodd;stroke:#000000;stroke-width:0.336998;stroke-linecap:round"
       d="m 1.1448613,1.4114153 h 6.176944 c 0.445588,0 0.8043105,0.3587225 0.8043105,0.8043105 v 4.0352151 c 0,0.445588 -0.3587225,0.8043105 -0.8043105,0.8043105 h -6.176944 c -0.44558797,0 -0.80431043,-0.3587225 -0.80431043,-0.8043105 V 2.2157258 c 0,-0.445588 0.35872246,-0.8043105 0.80431043,-0.8043105 z" />
    <path
       id="path3306"
       style="fill:none;fill-rule:evenodd;stroke:#000000;stroke-width:0.336998;stroke-linecap:round"
       d="m 1.1448613,1.4114153 h 6.176944 c 0.445588,0 0.8043105,0.3587225 0.8043105,0.8043105 v 4.0352151 c 0,0.445588 -0.3587225,0.8043105 -0.8043105,0.8043105 h -6.176944 c -0.44558797,0 -0.80431043,-0.3587225 -0.80431043,-0.8043105 V 2.2157258 c 0,-0.445588 0.35872246,-0.8043105 0.80431043,-0.8043105 z" />
    <circle
       style="fill:#000000;fill-rule:evenodd;stroke:#800000;stroke-width:0;stroke-linecap:round;stroke-dasharray:none"
       id="path6487"
       cx="1.9516925"
       cy="2.9542871"
       r="0.74814755" />
  </g>
</svg>
